# xmcd
#
# Track frame offsets:
#   150
#   33569
#   60663
#   92102
#   110332
#   126430
#   141386
#   166275
#   189502
#   216522
#   241265
#   256864
#   278586
#   298061
#   315836
#   339886
#
# Disc length: 4789 seconds
#
# Revision: 0
# Processed by: cddbd v1.4PL0 Copyright (c) Steve Scherf et al.
# Submitted via: uFREEDB 1.6.0
#
DISCID=ec12b310
DTITLE=Tom Waits - Live In Firenze
DYEAR=1900
DGENRE=Blues
TTITLE0=Get Behind The Mule
TTITLE1=Chocolate Jesus
TTITLE2=Hold On
TTITLE3=That Feel
TTITLE4=I Beg You Dear
TTITLE5=The Briar And The Rose
TTITLE6=Innocent When You Dream
TTITLE7=Temptation
TTITLE8=Cold Water
TTITLE9=Big In Japan
TTITLE10=Jockey Full Of Bourbon
TTITLE11=Earth Died Screaming
TTITLE12=Jesus Gonna Be Here
TTITLE13=Tango Till They're Sore
TTITLE14=Looking For The Heart Of Saturday Night
TTITLE15=A House Where Nobody Lives
EXTD=
EXTT0=
EXTT1=
EXTT2=
EXTT3=
EXTT4=
EXTT5=
EXTT6=
EXTT7=
EXTT8=
EXTT9=
EXTT10=
EXTT11=
EXTT12=
EXTT13=
EXTT14=
EXTT15=
PLAYORDER=
